<?xml version="1.0" standalone="no"?>
<!DOCTYPE svg PUBLIC "-//W3C//DTD SVG 20010904//EN"
 "http://www.w3.org/TR/2001/REC-SVG-20010904/DTD/svg10.dtd">
<svg version="1.0" xmlns="http://www.w3.org/2000/svg"
 width="2048.000000pt" height="2047.000000pt" viewBox="0 0 2048.000000 2047.000000"
 preserveAspectRatio="xMidYMid meet">

<g transform="translate(0.000000,2047.000000) scale(0.100000,-0.100000)"
fill="#000000" stroke="none">
<path d="M9635 16939 c-1008 -38 -2010 -179 -2903 -409 -540 -140 -1098 -326
-1528 -511 -65 -28 -146 -62 -178 -76 -124 -52 -487 -233 -651 -325 -545 -305
-948 -597 -1319 -958 -598 -581 -924 -1165 -1043 -1870 -16 -98 -18 -260 -21
-2470 -3 -2409 -2 -2489 34 -2705 106 -629 455 -1244 1015 -1790 187 -182 447
-400 633 -530 31 -22 83 -59 115 -82 32 -22 130 -86 217 -141 595 -373 1208
-655 1969 -907 988 -328 2075 -533 3230 -610 1014 -67 2101 -25 3100 120 152
22 519 84 573 96 26 6 67 14 92 19 524 92 1351 327 1895 537 438 170 931 403
1265 599 835 489 1455 1064 1828 1694 72 122 190 368 236 494 68 181 146 504
146 602 0 18 5 36 10 39 7 4 10 828 10 2439 0 2614 2 2490 -50 2760 -81 419
-315 902 -625 1291 -993 1248 -2940 2179 -5315 2541 -871 133 -1836 187 -2735
153z m1345 -128 c511 -35 743 -57 1085 -101 2433 -314 4491 -1253 5505 -2510
200 -248 392 -572 495 -833 95 -243 155 -506 174 -762 7 -93 11 -911 11 -2415
0 -2204 -1 -2280 -20 -2424 -23 -177 -52 -317 -90 -440 -157 -509 -427 -941
-865 -1382 -182 -184 -266 -259 -452 -407 -1025 -813 -2576 -1430 -4288 -1707
-362 -58 -601 -89 -910 -119 -544 -52 -841 -66 -1445 -66 -520 0 -710 7 -1150
41 -2412 185 -4594 989 -5825 2145 -633 595 -996 1240 -1080 1919 -13 109 -15
424 -15 2490 0 2575 -3 2448 55 2717 193 893 922 1759 2045 2430 1014 606
2343 1058 3735 1272 324 50 634 89 885 111 313 27 520 40 855 54 169 7 1147
-3 1295 -13z"/>
<path d="M8396 16322 c-18 -157 -34 -533 -57 -1342 -13 -437 -17 -2884 -6
-3315 20 -758 29 -1014 43 -1265 23 -405 33 -448 53 -215 15 179 29 493 43
990 17 578 17 3470 0 4045 -20 702 -44 1144 -62 1155 -4 3 -10 -21 -14 -53z"/>
<path d="M4439 14952 c-676 -387 -1178 -806 -1486 -1238 -179 -252 -279 -474
-340 -757 -17 -77 -18 -231 -18 -2722 l0 -2640 23 -102 c34 -156 76 -274 152
-428 84 -171 179 -315 314 -477 285 -341 703 -678 1231 -995 220 -132 269
-157 288 -150 29 11 19 26 -35 53 -29 15 -132 74 -228 132 -1037 621 -1613
1295 -1700 1987 -8 65 -10 796 -8 2675 l3 2585 23 97 c67 291 205 571 406 823
125 156 362 394 531 532 243 200 585 431 890 603 130 73 142 82 122 98 -11 9
-46 -6 -168 -76z"/>
<path d="M15746 15033 c-18 -18 3 -37 97 -89 529 -296 1005 -655 1298 -979
139 -154 185 -212 279 -355 174 -265 276 -549 300 -835 5 -63 8 -1183 6 -2620
l-2 -2510 -26 -118 c-92 -409 -283 -740 -637 -1100 -306 -312 -700 -601 -1248
-916 -69 -40 -94 -71 -55 -71 20 0 292 157 482 279 625 401 1096 865 1319
1301 90 174 130 286 184 510 20 84 21 105 24 2600 4 2551 3 2662 -33 2846 -19
100 -83 293 -132 398 -175 371 -505 748 -972 1108 -260 200 -860 574 -884 551z"/>
<path d="M9086 14070 c5 -5 55 -22 110 -35 227 -58 566 -110 879 -135 77 -6
160 -13 185 -15 25 -3 284 -9 575 -14 552 -10 700 -20 799 -53 109 -36 220
-123 257 -203 17 -36 19 -68 19 -345 0 -276 -2 -309 -19 -346 -58 -127 -269
-244 -601 -333 -99 -26 -309 -68 -389 -77 -297 -33 696 -67 1039 -35 615 56
1060 181 1242 350 99 91 98 86 98 444 0 356 2 346 -99 439 -180 167 -604 287
-1231 350 -158 15 -2880 24 -2864 8z"/>
<path d="M7193 13420 c-22 -53 -46 -339 -63 -733 -12 -279 -12 -1138 1 -1412
17 -389 46 -696 68 -718 27 -27 62 324 78 796 12 318 8 1191 -5 1447 -16 294
-40 548 -56 602 -13 42 -13 42 -23 18z"/>
<path d="M9607 12855 c-17 -59 -48 -490 -62 -855 -13 -368 -17 -1680 -6 -2093
17 -600 47 -1082 71 -1126 42 -78 90 1007 90 2044 0 887 -40 1922 -78 2025 -8
23 -10 23 -15 5z"/>
<path d="M11063 12110 c259 -86 303 -108 390 -198 106 -112 198 -289 316 -612
177 -481 252 -653 361 -819 83 -127 228 -270 340 -335 179 -105 445 -190 693
-222 157 -20 476 -15 627 10 52 8 112 18 133 21 138 23 413 104 607 180 110
43 384 174 378 180 -3 3 -27 -6 -54 -19 -141 -68 -348 -115 -539 -123 -500
-21 -998 204 -1230 557 -110 167 -194 358 -340 774 -95 272 -152 390 -223 468
-72 77 -175 144 -281 182 l-86 31 -665 2 -665 1 238 -78z"/>
<path d="M14134 8074 c-82 -64 -150 -120 -152 -124 -2 -5 1 -18 7 -28 11 -20
59 -5 431 134 11 4 -4 24 -55 70 -38 35 -72 64 -75 64 -4 0 -74 -52 -156 -116z"/>
<path d="M10645 7853 c-281 -44 -472 -218 -531 -481 -24 -106 -15 -330 16
-427 65 -205 226 -347 440 -391 125 -25 337 -16 446 20 198 64 356 234 409
441 24 93 29 265 11 365 -40 221 -184 383 -400 452 -46 15 -97 20 -211 23 -82
2 -163 1 -180 -2z m272 -102 c98 -43 175 -157 210 -312 24 -107 24 -384 0
-499 -33 -153 -96 -247 -196 -294 -37 -17 -65 -21 -146 -21 -89 0 -106 3 -157
28 -93 46 -165 147 -204 288 -15 52 -18 104 -19 274 0 190 2 218 23 290 45
155 116 235 237 266 58 15 196 4 252 -20z"/>
<path d="M5923 7833 c-221 -3 -233 -4 -233 -22 0 -15 13 -23 58 -35 31 -9 64
-20 72 -25 13 -7 15 -80 18 -546 1 -350 -1 -542 -8 -550 -5 -7 -39 -20 -75
-30 -50 -13 -65 -21 -63 -34 3 -14 33 -16 266 -19 251 -2 262 -2 262 17 0 12
-12 23 -32 31 -18 6 -43 16 -55 21 l-23 9 0 255 c0 277 -3 265 57 245 24 -9
44 -34 93 -118 34 -59 94 -161 133 -227 125 -214 162 -245 304 -253 45 -2 116
-1 157 3 70 6 76 9 76 29 0 18 -9 24 -46 34 -68 18 -125 83 -243 277 -58 94
-122 196 -143 227 -21 31 -38 59 -38 61 0 2 33 20 74 41 92 45 159 115 181
189 18 60 20 165 3 218 -16 54 -71 115 -129 144 -112 57 -205 65 -666 58z
m402 -102 c81 -37 117 -107 117 -232 0 -189 -66 -260 -244 -267 l-88 -4 0 261
0 261 88 0 c63 0 98 -6 127 -19z"/>
<path d="M7237 7811 c5 -20 34 -35 88 -47 17 -4 36 -11 43 -17 9 -7 12 -130
12 -552 l0 -543 -32 -11 c-18 -5 -52 -15 -75 -21 -34 -8 -40 -14 -36 -30 5
-20 15 -20 464 -20 l458 0 5 43 c3 23 8 99 12 168 l6 127 -27 -6 c-23 -4 -35
-21 -83 -123 l-56 -119 -183 0 -183 0 0 255 0 256 123 -3 122 -3 19 -72 c18
-69 20 -73 47 -73 l29 0 0 195 0 195 -28 0 c-27 0 -30 -4 -42 -57 -22 -98 -15
-93 -150 -93 l-120 0 0 240 0 240 177 -2 176 -3 8 -25 c4 -14 18 -62 30 -107
20 -80 30 -92 56 -75 11 7 63 247 63 290 0 9 -99 12 -464 12 -453 0 -464 0
-459 -19z"/>
<path d="M8510 7810 c0 -15 14 -23 69 -40 l68 -20 6 -82 c9 -109 9 -809 0
-927 -3 -53 -11 -94 -17 -96 -6 -2 -37 -11 -68 -20 -46 -12 -58 -20 -58 -35 0
-19 8 -20 201 -20 l200 0 -3 22 c-2 18 -14 25 -61 36 -35 9 -61 21 -67 33 -7
11 -9 180 -8 449 l3 430 385 -481 c212 -265 388 -486 391 -491 3 -5 29 -6 57
-2 l52 7 0 576 c0 447 3 581 13 593 6 9 35 21 62 27 63 15 79 25 72 45 -6 14
-32 16 -207 16 -190 0 -200 -1 -200 -19 0 -15 15 -24 69 -40 66 -20 69 -22 75
-58 8 -54 7 -723 -1 -723 -5 0 -15 11 -23 25 -8 13 -157 202 -330 419 l-315
395 -182 0 c-175 1 -183 0 -183 -19z"/>
<path d="M11752 7808 c2 -17 14 -25 58 -36 30 -7 61 -18 67 -24 10 -8 13 -130
13 -554 l0 -543 -57 -16 c-32 -9 -64 -18 -70 -20 -7 -3 -13 -14 -13 -25 0 -19
6 -20 195 -20 l194 0 -8 22 c-5 14 -25 27 -60 38 -28 10 -54 20 -56 22 -3 3
-4 209 -3 458 l3 453 199 -497 c109 -273 202 -498 206 -501 4 -2 23 -2 42 1
l35 6 123 302 c68 165 162 395 209 511 l86 210 3 -464 c1 -319 -1 -468 -9
-477 -5 -7 -35 -20 -65 -30 -40 -12 -54 -21 -52 -33 3 -14 35 -16 275 -19 268
-2 271 -2 266 18 -4 14 -22 25 -62 36 -31 9 -62 21 -69 27 -9 7 -12 125 -10
551 l3 541 71 23 c60 20 71 27 67 43 -5 18 -17 19 -222 19 l-216 0 -179 -440
c-99 -243 -182 -437 -186 -433 -7 7 -103 248 -300 748 l-47 120 -217 3 -217 2
3 -22z"/>
<path d="M13680 7811 c0 -15 15 -24 69 -40 39 -12 71 -28 75 -37 10 -26 7
-1040 -3 -1067 -6 -15 -21 -27 -38 -31 -94 -23 -103 -27 -103 -46 0 -20 10
-20 463 -20 l464 0 10 163 c5 89 8 165 7 168 -2 4 -14 4 -28 2 -19 -4 -34 -27
-80 -124 l-56 -119 -179 0 c-139 0 -180 3 -184 13 -3 7 -6 122 -6 255 -2 227
-1 242 16 243 88 3 220 -4 228 -12 6 -5 17 -38 25 -72 14 -55 19 -62 43 -65
l26 -3 3 185 c2 103 2 191 0 196 -2 6 -14 10 -27 10 -20 0 -26 -7 -35 -42 -19
-74 -22 -83 -32 -95 -7 -9 -46 -13 -129 -13 l-119 0 0 240 0 240 179 0 178 0
28 -105 c16 -58 32 -108 36 -111 5 -3 17 -1 26 5 14 7 24 41 42 143 13 73 26
139 28 146 4 9 -92 12 -461 12 -451 0 -466 -1 -466 -19z"/>
<path d="M8785 5843 c-14 -49 -28 -94 -30 -101 -3 -9 2 -12 16 -10 15 2 41 33
80 93 32 50 58 93 58 98 1 4 -21 7 -48 7 l-50 0 -26 -87z"/>
<path d="M6757 5670 c-162 -41 -258 -170 -244 -327 16 -167 148 -270 335 -262
59 3 90 11 135 32 31 16 57 35 57 43 0 17 2 17 -50 -1 -23 -8 -73 -15 -110
-15 -111 0 -185 43 -233 135 -44 84 -21 242 44 305 55 52 147 74 217 49 26 -9
32 -18 48 -75 9 -35 22 -64 29 -64 6 0 17 28 23 64 16 85 15 103 -5 111 -30
11 -205 15 -246 5z"/>
<path d="M7469 5673 c-10 -2 -19 -12 -22 -21 -2 -9 -53 -128 -112 -264 -106
-244 -107 -247 -146 -262 -66 -27 -47 -36 72 -36 82 0 110 3 107 12 -3 7 -19
16 -37 21 -31 8 -33 11 -28 40 3 18 14 53 26 80 l20 47 98 0 98 0 23 -62 c29
-83 28 -93 -10 -104 -17 -5 -33 -15 -36 -22 -3 -9 28 -12 127 -12 133 0 168
10 107 30 -19 6 -40 18 -47 27 -7 8 -56 130 -109 271 -52 140 -100 256 -105
257 -6 2 -17 1 -26 -2z m20 -229 c17 -47 31 -90 31 -95 0 -5 -34 -9 -76 -9
-57 0 -75 3 -71 13 39 98 73 177 78 177 4 0 20 -39 38 -86z"/>
<path d="M9522 5666 c-109 -36 -141 -131 -77 -228 l27 -40 -51 -45 c-79 -69
-91 -162 -28 -221 59 -56 200 -69 301 -27 l59 24 42 -24 c45 -27 121 -34 169
-15 39 14 31 30 -14 30 -33 0 -48 7 -82 38 l-40 38 20 40 c11 22 24 68 27 101
7 56 9 61 37 69 56 17 23 28 -72 25 -52 -2 -97 -4 -99 -6 -1 -2 15 -9 37 -15
46 -12 57 -32 47 -83 -8 -42 -26 -87 -34 -87 -10 0 -176 169 -170 173 2 3 18
12 35 20 80 41 116 109 90 171 -25 60 -135 91 -224 62z m98 -46 c11 -11 20
-28 21 -37 3 -49 -5 -81 -28 -111 -27 -36 -42 -33 -68 18 -26 51 -28 93 -5
123 25 32 53 34 80 7z m-13 -351 c48 -50 89 -94 91 -98 3 -9 -36 -26 -79 -36
-40 -10 -107 12 -125 41 -9 13 -20 39 -24 57 -10 48 15 127 41 127 4 0 48 -41
96 -91z"/>
<path d="M11464 5662 c-72 -25 -103 -48 -120 -87 -40 -97 6 -174 134 -224 29
-12 71 -30 93 -42 72 -36 85 -119 25 -163 -22 -17 -42 -21 -96 -21 -43 0 -74
5 -82 13 -7 7 -19 42 -28 78 -23 100 -39 88 -54 -43 l-7 -62 43 -13 c24 -7 81
-12 128 -13 73 0 93 4 142 28 150 74 139 223 -22 291 -117 49 -151 69 -165 96
-22 42 -19 66 13 101 23 25 38 32 78 36 79 8 101 -6 121 -77 17 -63 29 -75 37
-37 19 86 26 130 23 134 -8 7 -122 23 -167 23 -25 -1 -68 -9 -96 -18z"/>
<path d="M13423 5659 c-73 -25 -130 -76 -164 -146 -20 -40 -24 -63 -23 -143 0
-86 2 -100 29 -149 52 -94 141 -141 268 -141 174 0 281 77 317 229 24 101 -7
236 -68 294 -75 72 -239 97 -359 56z m217 -41 c37 -19 51 -34 75 -83 27 -55
30 -69 30 -160 0 -89 -3 -106 -28 -158 -36 -71 -78 -97 -163 -97 -114 0 -181
61 -204 186 -21 109 1 227 53 283 51 55 159 68 237 29z"/>
<path d="M7922 5659 c2 -6 19 -17 38 -23 l35 -11 3 -243 2 -243 -40 -16 c-21
-9 -37 -20 -34 -24 7 -12 251 -11 258 0 4 5 -13 16 -36 23 l-43 15 -3 112 -3
112 68 -3 67 -3 9 -37 c5 -22 15 -38 23 -38 11 0 14 20 14 95 0 76 -3 95 -15
95 -8 0 -17 -14 -21 -35 l-6 -35 -69 0 -69 0 0 110 0 110 99 0 100 0 16 -55
c8 -30 19 -55 24 -55 5 0 14 28 21 63 6 34 14 69 16 79 4 15 -16 16 -227 17
-170 1 -230 -2 -227 -10z"/>
<path d="M8532 5658 c2 -6 19 -16 38 -22 l35 -11 3 -243 2 -243 -40 -16 c-21
-9 -37 -20 -34 -24 3 -5 106 -9 230 -9 l224 0 0 44 c0 24 3 64 6 90 10 67 -10
59 -48 -21 -18 -36 -36 -66 -40 -65 -5 1 -51 2 -103 2 l-95 0 0 115 0 116 67
-3 67 -3 9 -37 c5 -22 15 -38 23 -38 11 0 14 20 14 95 0 73 -3 95 -14 95 -7 0
-17 -15 -22 -32 -10 -33 -11 -33 -77 -36 l-67 -3 0 106 0 105 103 0 104 0 13
-55 c7 -31 18 -54 24 -52 6 2 16 30 23 63 22 104 44 94 -218 94 -160 -1 -229
-4 -227 -12z"/>
<path d="M10290 5662 c0 -5 18 -17 40 -26 l40 -16 -2 -242 -3 -243 -35 -11
c-19 -6 -36 -16 -38 -23 -5 -14 252 -15 329 -1 73 14 130 55 148 106 29 82 -9
149 -100 181 l-48 17 41 21 c55 26 79 61 80 113 0 50 -20 85 -65 109 -26 15
-63 19 -209 21 -111 2 -178 0 -178 -6z m327 -66 c28 -33 31 -100 7 -135 -21
-29 -72 -51 -119 -51 l-35 0 0 111 0 111 62 -4 c51 -4 65 -9 85 -32z m1 -240
c76 -39 67 -178 -13 -212 -19 -8 -57 -14 -85 -14 l-50 0 0 126 0 127 60 -6
c33 -4 73 -13 88 -21z"/>
<path d="M10912 5658 c2 -6 19 -16 38 -22 l35 -11 3 -243 2 -243 -40 -16 c-22
-9 -40 -20 -40 -25 0 -4 59 -8 131 -8 93 0 130 3 127 11 -2 7 -19 17 -38 23
l-35 11 0 245 0 245 35 11 c72 24 46 34 -90 33 -90 0 -130 -3 -128 -11z"/>
<path d="M11870 5642 c0 -60 13 -162 21 -162 4 0 18 32 30 70 l23 70 78 0 78
0 -2 -242 -3 -241 -43 -15 c-23 -7 -40 -18 -36 -23 8 -14 267 -12 262 3 -2 6
-20 17 -39 23 l-34 12 -3 241 -2 242 78 0 79 0 6 -43 c7 -53 25 -102 34 -94 7
8 32 132 33 164 l0 23 -280 0 -280 0 0 -28z"/>
<path d="M12582 5659 c2 -6 19 -17 38 -23 l35 -11 0 -245 0 -245 -35 -11 c-19
-6 -36 -16 -38 -23 -3 -8 33 -11 123 -11 94 0 126 3 123 12 -3 7 -19 16 -36
20 l-32 9 0 109 0 110 28 0 c15 0 32 -4 38 -8 6 -4 38 -52 71 -107 76 -126
101 -145 194 -145 38 0 69 4 69 8 0 5 -18 16 -41 26 -34 15 -53 37 -116 133
-42 63 -74 115 -72 116 2 1 22 12 44 23 53 29 76 62 82 115 5 56 -20 106 -67
134 -31 18 -55 20 -223 23 -140 2 -188 -1 -185 -9z m308 -47 c50 -24 70 -84
50 -144 -18 -52 -62 -78 -132 -78 l-48 0 0 120 0 120 48 0 c26 0 63 -8 82 -18z"/>
</g>
</svg>
